REM DIRINDEX 1\2,1\3,1\4,1\6,1\5\7,1\5\8
REM DIRNAME cjc114,folder01,folder02,folder03,folder04,folder05,folder06,folder07
TITLE ""
FILE "DB4500_5th_6C_26.mp3" MP3
  TRACK 01 AUDIO
    TITLE "0:"
    INDEX 01 00:00:00
  TRACK 02 AUDIO
    TITLE "2:cjc114_4133"
    INDEX 01 00:00:03
  TRACK 03 AUDIO
    TITLE "0:"
    INDEX 01 00:01:26
  TRACK 04 AUDIO
    TITLE "3:cjc114_4134"
    INDEX 01 00:01:46
  TRACK 05 AUDIO
    TITLE "0:"
    INDEX 01 00:03:10
  TRACK 06 AUDIO
    TITLE "4:cjc114_4135"
    INDEX 01 00:03:33
  TRACK 07 AUDIO
    TITLE "0:"
    INDEX 01 00:07:39
  TRACK 08 AUDIO
    TITLE "2:cjc114_4136"
    INDEX 01 00:08:13
  TRACK 09 AUDIO
    TITLE "0:"
    INDEX 01 00:09:24
  TRACK 10 AUDIO
    TITLE "3:cjc114_4137"
    INDEX 01 00:09:45
  TRACK 11 AUDIO
    TITLE "0:"
    INDEX 01 00:10:70
  TRACK 12 AUDIO
    TITLE "4:cjc114_4138"
    INDEX 01 00:11:19
  TRACK 13 AUDIO
    TITLE "0:"
    INDEX 01 00:15:70
  TRACK 14 AUDIO
    TITLE "2:cjc114_4139"
    INDEX 01 00:16:42
  TRACK 15 AUDIO
    TITLE "0:"
    INDEX 01 00:17:65
  TRACK 16 AUDIO
    TITLE "3:cjc114_4140"
    INDEX 01 00:18:13
  TRACK 17 AUDIO
    TITLE "0:"
    INDEX 01 00:19:16
  TRACK 18 AUDIO
    TITLE "4:cjc114_4141"
    INDEX 01 00:19:36
  TRACK 19 AUDIO
    TITLE "0:"
    INDEX 01 00:22:34
  TRACK 20 AUDIO
    TITLE "2:cjc114_4142"
    INDEX 01 00:23:04
  TRACK 21 AUDIO
    TITLE "0:"
    INDEX 01 00:24:24
  TRACK 22 AUDIO
    TITLE "3:cjc114_4143"
    INDEX 01 00:24:45
  TRACK 23 AUDIO
    TITLE "0:"
    INDEX 01 00:25:60
  TRACK 24 AUDIO
    TITLE "4:cjc114_4144"
    INDEX 01 00:26:07
  TRACK 25 AUDIO
    TITLE "0:"
    INDEX 01 00:29:40
  TRACK 26 AUDIO
    TITLE "2:cjc114_4145"
    INDEX 01 00:30:12
  TRACK 27 AUDIO
    TITLE "0:"
    INDEX 01 00:31:22
  TRACK 28 AUDIO
    TITLE "3:cjc114_4146"
    INDEX 01 00:31:43
  TRACK 29 AUDIO
    TITLE "0:"
    INDEX 01 00:32:45
  TRACK 30 AUDIO
    TITLE "4:cjc114_4147"
    INDEX 01 00:32:70
  TRACK 31 AUDIO
    TITLE "0:"
    INDEX 01 00:37:07
  TRACK 32 AUDIO
    TITLE "2:cjc114_4148"
    INDEX 01 00:37:52
  TRACK 33 AUDIO
    TITLE "0:"
    INDEX 01 00:38:57
  TRACK 34 AUDIO
    TITLE "3:cjc114_4149"
    INDEX 01 00:38:71
  TRACK 35 AUDIO
    TITLE "0:"
    INDEX 01 00:40:17
  TRACK 36 AUDIO
    TITLE "4:cjc114_4150"
    INDEX 01 00:40:30
  TRACK 37 AUDIO
    TITLE "0:"
    INDEX 01 00:43:05
  TRACK 38 AUDIO
    TITLE "2:cjc114_4151"
    INDEX 01 00:43:42
  TRACK 39 AUDIO
    TITLE "0:"
    INDEX 01 00:44:73
  TRACK 40 AUDIO
    TITLE "3:cjc114_4152"
    INDEX 01 00:45:12
  TRACK 41 AUDIO
    TITLE "0:"
    INDEX 01 00:46:29
  TRACK 42 AUDIO
    TITLE "4:cjc114_4153"
    INDEX 01 00:46:45
  TRACK 43 AUDIO
    TITLE "0:"
    INDEX 01 00:49:61
  TRACK 44 AUDIO
    TITLE "2:cjc114_4154"
    INDEX 01 00:50:27
  TRACK 45 AUDIO
    TITLE "0:"
    INDEX 01 00:51:44
  TRACK 46 AUDIO
    TITLE "3:cjc114_4155"
    INDEX 01 00:51:58
  TRACK 47 AUDIO
    TITLE "0:"
    INDEX 01 00:53:02
  TRACK 48 AUDIO
    TITLE "4:cjc114_4156"
    INDEX 01 00:53:13
  TRACK 49 AUDIO
    TITLE "0:"
    INDEX 01 00:56:53
  TRACK 50 AUDIO
    TITLE "2:cjc114_4157"
    INDEX 01 00:57:15
  TRACK 51 AUDIO
    TITLE "0:"
    INDEX 01 00:58:17
  TRACK 52 AUDIO
    TITLE "3:cjc114_4158"
    INDEX 01 00:58:30
  TRACK 53 AUDIO
    TITLE "0:"
    INDEX 01 00:59:38
  TRACK 54 AUDIO
    TITLE "4:cjc114_4159"
    INDEX 01 00:59:47
  TRACK 55 AUDIO
    TITLE "0:"
    INDEX 01 01:03:47
  TRACK 56 AUDIO
    TITLE "2:cjc114_4160"
    INDEX 01 01:04:09
  TRACK 57 AUDIO
    TITLE "0:"
    INDEX 01 01:05:26
  TRACK 58 AUDIO
    TITLE "3:cjc114_4161"
    INDEX 01 01:05:40
  TRACK 59 AUDIO
    TITLE "0:"
    INDEX 01 01:06:55
  TRACK 60 AUDIO
    TITLE "4:cjc114_4162"
    INDEX 01 01:06:69
  TRACK 61 AUDIO
    TITLE "0:"
    INDEX 01 01:11:11
  TRACK 62 AUDIO
    TITLE "2:cjc114_4163"
    INDEX 01 01:11:47
  TRACK 63 AUDIO
    TITLE "0:"
    INDEX 01 01:12:73
  TRACK 64 AUDIO
    TITLE "3:cjc114_4164"
    INDEX 01 01:13:12
  TRACK 65 AUDIO
    TITLE "0:"
    INDEX 01 01:14:19
  TRACK 66 AUDIO
    TITLE "4:cjc114_4165"
    INDEX 01 01:14:33
  TRACK 67 AUDIO
    TITLE "0:"
    INDEX 01 01:18:45
  TRACK 68 AUDIO
    TITLE "2:cjc114_4166"
    INDEX 01 01:19:07
  TRACK 69 AUDIO
    TITLE "0:"
    INDEX 01 01:20:06
  TRACK 70 AUDIO
    TITLE "3:cjc114_4167"
    INDEX 01 01:20:22
  TRACK 71 AUDIO
    TITLE "0:"
    INDEX 01 01:21:27
  TRACK 72 AUDIO
    TITLE "4:cjc114_4168"
    INDEX 01 01:21:41
  TRACK 73 AUDIO
    TITLE "0:"
    INDEX 01 01:25:09
  TRACK 74 AUDIO
    TITLE "2:cjc114_4169"
    INDEX 01 01:25:47
  TRACK 75 AUDIO
    TITLE "0:"
    INDEX 01 01:26:70
  TRACK 76 AUDIO
    TITLE "3:cjc114_4170"
    INDEX 01 01:27:12
  TRACK 77 AUDIO
    TITLE "0:"
    INDEX 01 01:28:31
  TRACK 78 AUDIO
    TITLE "4:cjc114_4171"
    INDEX 01 01:28:43
  TRACK 79 AUDIO
    TITLE "0:"
    INDEX 01 01:31:22
